<svg width="85" height="26" viewBox="0 0 85 26" fill="none" xmlns="http://www.w3.org/2000/svg">
<path d="M30.1048 25.177C30.0311 25.0715 30.0673 24.9531 30.0673 24.8404C30.0658 17.0951 30.0658 9.35117 30.0658 1.60583C30.0658 1.5365 30.0701 1.46716 30.0658 1.39783C30.06 1.29527 30.1048 1.25049 30.2059 1.25482C30.2637 1.25771 30.3215 1.25482 30.3793 1.25482C31.9494 1.25482 33.521 1.25916 35.0912 1.24905C35.3079 1.2476 35.4032 1.31549 35.4855 1.5105C35.5953 1.77051 35.6805 2.04062 35.7759 2.30497C36.0373 3.02288 36.2988 3.74223 36.5689 4.45725C36.8708 5.2575 37.1337 6.07074 37.4399 6.8681C37.7548 7.68712 38.0235 8.52204 38.3572 9.33384C38.597 9.9203 38.7804 10.5284 39 11.1236C39.3105 11.9686 39.6355 12.8093 39.9447 13.6557C40.1469 14.2075 40.313 14.7723 40.5311 15.3169C40.7594 15.8918 40.95 16.4783 41.184 17.0517C41.4296 17.657 41.6275 18.2824 41.8398 18.9007C41.86 18.9599 41.8846 19.0263 41.9337 19.0307C42.0045 19.0379 42.0334 18.97 42.0565 18.9036C42.3324 18.1293 42.6083 17.3565 42.8885 16.5852C43.1009 16.0016 43.332 15.4238 43.5357 14.8359C43.735 14.2581 43.9517 13.6875 44.151 13.1083C44.3012 12.6692 44.4775 12.2358 44.6392 11.7981C44.8747 11.1626 45.0928 10.5227 45.3239 9.88563C45.4525 9.53173 45.6099 9.18794 45.7241 8.82827C45.8353 8.47726 45.9624 8.13058 46.091 7.78824C46.2816 7.28122 46.4622 6.77132 46.6572 6.26575C46.7973 5.90029 46.9446 5.53339 47.0544 5.15349C47.1657 4.7707 47.3318 4.40381 47.4777 4.03113C47.6019 3.71767 47.6871 3.39122 47.8186 3.07777C47.9746 2.70798 48.0973 2.3223 48.2216 1.93951C48.2765 1.77051 48.3848 1.62461 48.3848 1.42816C48.3848 1.25482 48.5408 1.24905 48.6867 1.24905C50.0965 1.25193 51.5049 1.25049 52.9147 1.25049C53.1227 1.25049 53.3307 1.25049 53.5387 1.25049C53.8868 1.25338 53.8406 1.21582 53.845 1.57261C53.845 1.59572 53.845 1.61883 53.845 1.64195C53.845 9.35262 53.845 17.0618 53.8435 24.7725C53.8435 24.9068 53.884 25.0499 53.8016 25.177C52.6504 25.1365 51.4977 25.1466 50.345 25.1712C50.267 25.0426 50.3074 24.9011 50.3074 24.7653C50.3045 18.7057 50.306 12.646 50.306 6.58642V6.13574C50.0792 6.50553 49.9867 6.84643 49.8654 7.17577C49.5404 8.0598 49.2082 8.94094 48.8846 9.82496C48.5394 10.7653 48.2143 11.7129 47.8576 12.6489C47.5239 13.5228 47.2119 14.4025 46.884 15.2779C46.5575 16.1518 46.2397 17.0286 45.9147 17.9025C45.6085 18.7259 45.3066 19.5507 45.0018 20.374C44.7519 21.0486 44.5049 21.7246 44.255 22.3978C43.9488 23.2211 43.631 24.0402 43.345 24.8707C43.3089 24.9762 43.2453 25.073 43.1948 25.1726C42.37 25.1365 41.5452 25.151 40.7203 25.1654C40.4603 24.7638 40.3809 24.2901 40.1931 23.8582C40.0458 23.5187 39.9447 23.1605 39.8161 22.8138C39.6052 22.249 39.3972 21.6813 39.1935 21.1136C39.0433 20.6933 38.883 20.2744 38.727 19.854C38.4886 19.2141 38.2373 18.5786 38.0018 17.9372C37.8083 17.4114 37.6349 16.8784 37.4457 16.3526C37.2984 15.9424 37.138 15.5365 36.9835 15.1291C36.7408 14.4907 36.4923 13.8536 36.2598 13.2123C36.0561 12.6533 35.8784 12.0856 35.6733 11.528C35.3729 10.7119 35.058 9.90152 34.7532 9.08683C34.5509 8.54659 34.3733 7.99624 34.1523 7.46467C33.9847 7.06022 33.8952 6.62542 33.6655 6.19352C33.6655 6.36253 33.6655 6.48675 33.6655 6.61098C33.6741 12.6663 33.6828 18.7216 33.6886 24.7768C33.6886 24.9112 33.7319 25.0542 33.6438 25.1799C32.4666 25.1394 31.2893 25.1495 30.112 25.1741L30.1048 25.177Z" fill="white"/>
<path d="M10.8527 0.587382C11.0738 0.572937 11.2933 0.558492 11.5129 0.545491C11.9578 0.542602 12.4041 0.538269 12.8505 0.533936C13.1134 0.552714 13.3763 0.571492 13.6392 0.591715C13.6738 0.637939 13.7157 0.624938 13.7576 0.60616C14.4452 0.733275 15.1458 0.799721 15.8189 0.997616C16.9803 1.33851 18.0795 1.81808 19.0849 2.50566C20.4037 3.40558 21.4639 4.54239 22.283 5.90598C22.6513 6.51989 22.9677 7.1598 23.2089 7.84015C23.3938 8.36161 23.5686 8.88307 23.7058 9.42042C24.0814 10.8981 24.1897 12.399 24.1102 13.9171C24.1016 14.0774 24.09 14.2392 24.0799 14.3996C24.0727 14.4025 24.0568 14.4053 24.0568 14.4082C24.0568 14.4241 24.0626 14.4386 24.0655 14.453C23.9788 15.3471 23.7982 16.2211 23.5613 17.0878C23.2074 18.3777 22.6643 19.5737 21.9088 20.6744C21.0364 21.9441 19.9429 22.9856 18.6241 23.7858C17.5913 24.4127 16.479 24.8475 15.3075 25.1278C14.9912 25.2029 14.6647 25.239 14.3441 25.2939C14.2574 25.2939 14.1707 25.291 14.0942 25.3444C13.9931 25.3517 13.8919 25.3574 13.7923 25.3647C13.6623 25.3762 13.5279 25.356 13.4037 25.4167C13.1538 25.4311 12.9054 25.4456 12.6569 25.4614C12.3622 25.4383 12.0676 25.4369 11.7729 25.4614C11.5244 25.447 11.2745 25.4311 11.0261 25.4167C10.9033 25.356 10.7675 25.3777 10.6375 25.3647C10.5378 25.3574 10.4382 25.3502 10.3385 25.343C10.2634 25.291 10.1753 25.2939 10.0886 25.2939C9.66105 25.3098 9.26092 25.1639 8.85647 25.0642C7.58676 24.7493 6.40228 24.2264 5.32181 23.4912C4.30778 22.8007 3.4382 21.9528 2.71018 20.9633C2.11794 20.1587 1.66726 19.279 1.26713 18.3632C0.947903 17.6309 0.745675 16.8639 0.560781 16.0954C0.443777 15.6057 0.370109 15.0929 0.372998 14.5801C0.398998 14.5368 0.391776 14.5021 0.346997 14.4747C0.255994 13.3696 0.271884 12.2675 0.384553 11.1639C0.456778 10.459 0.559336 9.75843 0.757231 9.08241C0.906013 8.57539 1.0678 8.06982 1.28158 7.57725C1.54881 6.96335 1.83337 6.36244 2.19594 5.80053C2.5065 5.31808 2.79829 4.82262 3.19697 4.39505C3.42375 4.15237 3.63754 3.89092 3.87299 3.65692C4.22978 3.30302 4.60245 2.95923 5.0358 2.69055C5.56737 2.36121 6.06283 1.96542 6.63918 1.71986C7.15775 1.5003 7.67343 1.27496 8.21656 1.10451C8.85936 0.90228 9.51949 0.808388 10.1681 0.645161C10.3096 0.609049 10.4656 0.626383 10.613 0.61916C10.6953 0.622049 10.7805 0.637939 10.8556 0.587382H10.8527ZM4.37856 11.3416C4.37856 11.3416 4.35834 11.3474 4.35834 11.3488C4.35834 11.3633 4.36411 11.3763 4.367 11.3907C4.35256 11.5857 4.33956 11.7822 4.32511 11.9772C4.27744 12.0032 4.276 12.0393 4.302 12.0826C4.27456 12.7962 4.26733 13.5098 4.341 14.2219C4.39734 14.7636 4.47534 15.3009 4.59812 15.8339C4.77146 16.588 5.05602 17.2943 5.40703 17.9804C5.74793 18.6464 6.17406 19.2574 6.70563 19.7788C7.30942 20.3725 8.00855 20.8434 8.78713 21.1944C9.2537 21.4053 9.7506 21.5194 10.2331 21.6769C10.5176 21.7693 10.8397 21.7534 11.1445 21.7852C11.1835 21.8314 11.2254 21.8199 11.2688 21.7924C11.8986 21.8546 12.5269 21.856 13.1567 21.791C13.2 21.8213 13.2434 21.83 13.2824 21.7838C13.5207 21.7722 13.7591 21.726 13.9858 21.6754C14.6561 21.5252 15.3177 21.3403 15.933 21.0124C16.6249 20.6426 17.2692 20.2093 17.8152 19.6445C18.1286 19.3195 18.3742 18.9396 18.6356 18.5712C18.9086 18.1856 19.1181 17.7696 19.29 17.3478C19.6424 16.484 19.875 15.5768 20.0151 14.6524C20.1437 13.8059 20.1639 12.9551 20.096 12.1014L20.0541 11.4673C20.0541 11.4673 20.0686 11.4499 20.0671 11.4485C20.0585 11.4369 20.0469 11.4283 20.0368 11.4167C20.0195 11.2708 20.0036 11.1249 19.9862 10.9776C19.9906 10.9704 20.0007 10.9602 19.9992 10.9588C19.9906 10.9472 19.979 10.9386 19.9689 10.9299C19.823 10.7378 19.8577 10.4966 19.8172 10.2813C19.7161 9.76276 19.55 9.26586 19.368 8.77618C19.0704 7.96871 18.6241 7.24069 18.0636 6.582C17.441 5.84965 16.6885 5.2993 15.8276 4.88762C15.075 4.52794 14.2661 4.36038 13.4485 4.2246C13.1235 4.17693 13.4485 4.2246 13.1235 4.17693C12.9733 4.1726 12.8245 4.16826 12.6742 4.16538C12.1716 4.1596 11.6689 4.1336 11.1691 4.21304C10.9741 4.22316 11.1691 4.21304 10.9741 4.22316C10.6563 4.23327 10.3501 4.3156 10.0424 4.38638C9.19737 4.57705 8.39712 4.89917 7.68643 5.38163C6.82119 5.96809 6.12205 6.72501 5.58615 7.63792C4.99824 8.6404 4.65446 9.71943 4.45656 10.8548L4.43923 10.8577L4.45223 10.8692C4.42767 11.0281 4.40311 11.187 4.37856 11.3459V11.3416Z" fill="white"/>
<path d="M70.3627 25.1931C70.1605 24.7786 69.9771 24.3525 69.7893 23.9321C69.6116 23.5334 69.418 23.1376 69.236 22.7404C69.0006 22.2262 68.8041 21.6932 68.5109 21.2035C68.404 21.0244 68.3578 20.8019 68.2639 20.6069C68.0039 20.0565 67.767 19.4946 67.4911 18.9515C67.2455 18.4691 67.0693 17.9548 66.7934 17.4854C66.6735 17.2817 66.6389 17.0275 66.5103 16.831C66.2604 16.4482 66.1232 16.012 65.9296 15.609C65.7014 15.1323 65.489 14.6397 65.2666 14.1573C65.0687 13.7283 64.9199 13.2732 64.6512 12.876C64.566 12.7489 64.5602 12.5698 64.4793 12.4369C64.2165 12.0006 64.0879 11.5009 63.8192 11.0661C63.6892 10.8566 63.6358 10.6024 63.5303 10.377C62.7604 8.72022 61.9833 7.06628 61.2134 5.40945C60.689 4.28131 60.1748 3.14883 59.649 2.02213C59.5349 1.77946 59.4121 1.54112 59.3413 1.28255C59.428 1.23778 59.5089 1.25511 59.5883 1.25511C60.871 1.25511 62.1523 1.26089 63.435 1.24789C63.6777 1.245 63.7975 1.31578 63.8958 1.54401C64.3797 2.67648 64.9214 3.78152 65.4313 4.90244C65.9469 6.03347 66.4829 7.15439 67.0014 8.28398C67.6298 9.65047 68.2682 11.0126 68.8937 12.3791C69.4585 13.6127 70.0435 14.8391 70.6054 16.0741C71.072 17.1011 71.5631 18.1166 72.0427 19.1379C72.0629 19.1797 72.0788 19.2231 72.1033 19.2621C72.1611 19.3531 72.2204 19.3704 72.2781 19.2606C72.294 19.2303 72.3128 19.2 72.3258 19.1682C72.5338 18.6048 72.8501 18.0906 73.0495 17.5215C73.1102 17.3481 73.243 17.1892 73.3182 17.013C73.6186 16.3182 73.9667 15.6451 74.2744 14.9546C74.5503 14.3364 74.8537 13.7326 75.1281 13.1143C75.4314 12.4325 75.7622 11.7652 76.0728 11.0877C76.3631 10.4522 76.6751 9.82525 76.9482 9.1839C77.1287 8.75922 77.4061 8.37498 77.5072 7.91275C77.5317 7.79863 77.6372 7.70474 77.6848 7.59352C77.9131 7.05183 78.2236 6.54626 78.4013 5.98147C78.4345 5.87747 78.5169 5.7908 78.5631 5.68968C78.8087 5.14367 79.1048 4.62076 79.3012 4.05019C79.3735 3.8393 79.528 3.65874 79.619 3.45217C79.9166 2.78049 80.2257 2.11458 80.5493 1.45445C80.607 1.336 80.6547 1.24644 80.8208 1.24789C82.1945 1.25655 83.5682 1.25222 84.9362 1.25222C84.9997 1.36634 84.9217 1.44 84.8842 1.51656C84.718 1.86468 84.5202 2.1998 84.3584 2.54648C84.2067 2.87293 84.0781 3.21094 83.9149 3.53595C83.6578 4.04875 83.4151 4.56732 83.1725 5.08444C82.9803 5.49034 82.755 5.88324 82.5932 6.29926C82.4415 6.69216 82.2176 7.0475 82.0573 7.43029C81.9129 7.77552 81.7756 8.1222 81.5922 8.44576C81.3322 8.90511 81.1155 9.3919 80.9104 9.87147C80.4828 10.8696 79.9931 11.836 79.5439 12.8226C78.9863 14.0504 78.397 15.2623 77.8206 16.4814C77.2399 17.7107 76.6621 18.9414 76.0815 20.1692C75.6366 21.1081 75.1844 22.0427 74.741 22.9816C74.4434 23.6114 74.1545 24.247 73.8598 24.8782C73.8122 24.9808 73.7804 25.0964 73.688 25.1744C73.6432 25.1686 73.5984 25.157 73.5536 25.157C72.5569 25.157 71.5602 25.157 70.5635 25.157C70.4956 25.157 70.4249 25.144 70.3656 25.1903L70.3627 25.1931Z" fill="white"/>
<path d="M30.1048 25.1772C31.282 25.1541 32.4593 25.1426 33.6365 25.183C33.586 25.2206 33.5268 25.209 33.4704 25.209C32.4145 25.209 31.3586 25.209 30.3012 25.209C30.2348 25.209 30.1626 25.2278 30.1033 25.1772H30.1048Z" fill="white"/>
<path d="M50.3406 25.1773C51.4933 25.1527 52.6446 25.1426 53.7973 25.1831C53.7352 25.2249 53.6644 25.2091 53.5965 25.2091C52.5767 25.2091 51.5569 25.2091 50.5385 25.2091C50.4721 25.2091 50.3999 25.2278 50.3406 25.1773Z" fill="white"/>
<path d="M70.3627 25.1929C70.4234 25.1466 70.4942 25.1596 70.5606 25.1596C71.5573 25.1596 72.554 25.1596 73.5507 25.1596C73.5955 25.1596 73.6403 25.1698 73.6851 25.177C73.6648 25.1871 73.6446 25.2044 73.6244 25.2044C72.5367 25.2044 71.449 25.2275 70.3627 25.1929Z" fill="white"/>
<path d="M40.7146 25.1714C41.5394 25.157 42.3642 25.1426 43.189 25.1787C42.9853 25.2408 42.7773 25.2047 42.5722 25.2076C42.0406 25.2133 41.5105 25.2119 40.9789 25.2076C40.8908 25.2076 40.794 25.2422 40.7146 25.1714Z" fill="white"/>
<path d="M12.8505 0.534372C12.4041 0.538705 11.9578 0.541594 11.5129 0.545928C11.9592 0.476592 12.4056 0.496815 12.8505 0.534372Z" fill="white"/>
<path d="M11.77 25.4606C12.0647 25.4346 12.3594 25.4361 12.654 25.4606C12.3594 25.5141 12.0647 25.5126 11.77 25.4606Z" fill="white"/>
<path d="M10.6346 25.3635C10.7649 25.3766 10.901 25.3534 11.0241 25.4157C10.8894 25.4272 10.7548 25.4519 10.6346 25.3635Z" fill="white"/>
<path d="M13.4008 25.4157C13.5253 25.3548 13.66 25.3751 13.7903 25.3635C13.6687 25.4475 13.534 25.4287 13.4008 25.4157Z" fill="white"/>
<path d="M10.8533 0.588085C10.7765 0.637318 10.6911 0.622837 10.61 0.619941C10.6853 0.56202 10.7693 0.56926 10.8533 0.588085Z" fill="white"/>
<path d="M10.0858 25.2928C10.1726 25.2928 10.2595 25.2899 10.3363 25.342C10.2436 25.3709 10.1611 25.3507 10.0858 25.2928Z" fill="white"/>
<path d="M14.0912 25.3434C14.168 25.2898 14.2549 25.2942 14.3418 25.2927C14.2679 25.3564 14.1825 25.368 14.0912 25.3434Z" fill="white"/>
<path d="M13.7565 0.606304C13.7135 0.6249 13.6721 0.637775 13.6392 0.591998C13.6821 0.571971 13.7236 0.560527 13.7565 0.606304Z" fill="white"/>
<path d="M0.344016 14.4736C0.388362 14.4994 0.395515 14.5351 0.369766 14.5781C0.328281 14.5509 0.332572 14.5137 0.344016 14.4736Z" fill="white"/>
<path d="M24.064 14.4532C24.0611 14.4388 24.0554 14.423 24.0554 14.4086C24.0554 14.4057 24.0698 14.4028 24.0784 14.3999C24.0943 14.423 24.0943 14.4417 24.0655 14.4532H24.064Z" fill="white"/>
<path d="M11.1431 21.7838C11.186 21.7638 11.229 21.7538 11.2676 21.7924C11.2232 21.8182 11.1818 21.831 11.1431 21.7838Z" fill="white"/>
<path d="M13.1552 21.7893C13.1953 21.755 13.2382 21.7622 13.2811 21.7822C13.241 21.828 13.1981 21.818 13.1552 21.7893Z" fill="white"/>
<path d="M4.32467 11.9775C4.33754 12.0176 4.34327 12.0548 4.30178 12.082C4.27603 12.0391 4.27746 12.0033 4.32467 11.9775Z" fill="white"/>
<path d="M19.9875 10.9775C19.9775 10.9674 19.966 10.9588 19.9589 10.9488C19.9574 10.9459 19.9646 10.9359 19.9689 10.9302C19.9789 10.9402 19.9904 10.9488 19.999 10.9603C19.999 10.9617 19.9904 10.9732 19.9861 10.9789L19.9875 10.9775Z" fill="white"/>
<path d="M20.0541 11.466C20.044 11.4559 20.0339 11.4473 20.0267 11.4357C20.0253 11.4328 20.0339 11.4228 20.0368 11.417C20.0469 11.4271 20.0584 11.4372 20.0671 11.4487C20.0671 11.4501 20.0584 11.4602 20.0541 11.4674V11.466Z" fill="white"/>
<path d="M4.37846 11.342C4.38134 11.3564 4.38567 11.3708 4.38711 11.3853C4.38711 11.3867 4.37413 11.3896 4.36693 11.391C4.36404 11.3766 4.35972 11.3622 4.35828 11.3478C4.35828 11.3463 4.37125 11.3435 4.37846 11.3406V11.342Z" fill="white"/>
<path d="M4.45638 10.8523L4.4664 10.8637L4.45209 10.8666L4.43921 10.8552L4.45638 10.8523Z" fill="white"/>
</svg>
