<svg width="82" height="26" viewBox="0 0 82 26" fill="none" xmlns="http://www.w3.org/2000/svg">
<path d="M0.960272 12.6307C0.960277 12.1605 0.96794 12.1134 0.983851 11.8541C1.0117 11.4109 1.06872 10.9664 1.15225 10.5391C1.23977 10.092 1.37237 9.64353 1.51955 9.20432C2.61615 5.9526 4.67674 3.51181 7.7146 1.9005C8.81252 1.3171 9.98071 0.920223 11.2086 0.701941C12.5518 0.462494 13.895 0.425452 15.2423 0.647702C15.5817 0.703264 15.9172 0.776025 16.2553 0.838202C16.4754 0.879212 16.4927 0.903025 16.3786 1.10014C15.7819 2.13466 15.1826 3.16786 14.5846 4.20105C13.4508 6.15897 12.3171 8.11556 11.1847 10.0735C11.1118 10.2005 11.019 10.3182 10.9832 10.4611C11.0309 10.5537 11.1144 10.5193 11.1821 10.5206C11.4791 10.5246 11.7774 10.5047 12.0718 10.5286C12.3012 10.5471 12.4099 10.4452 12.5147 10.2627C13.427 8.6659 14.3459 7.0731 15.2635 5.47899C16.0219 4.16004 16.7817 2.8411 17.5415 1.52215C17.5681 1.47585 17.5959 1.43087 17.6184 1.38324C17.6781 1.25889 17.7656 1.26153 17.881 1.30651C19.5517 1.95739 21.0369 2.88608 22.3125 4.1574C23.5602 5.40226 24.5149 6.83101 25.158 8.46613C25.5797 9.53902 25.8502 10.6489 25.9576 11.8012C26.0531 12.8265 26.0332 13.8464 25.8767 14.8638C25.7348 15.7872 25.4736 16.6761 25.1328 17.5519C24.0376 20.3671 22.1308 22.4626 19.5226 23.9482C18.1608 24.7234 16.6889 25.1772 15.1388 25.3902C14.0409 25.541 12.9456 25.5291 11.8464 25.3995C11.2378 25.328 10.6517 25.1785 10.0616 25.033C9.45297 24.8822 8.87882 24.6494 8.30864 24.3927C7.73449 24.1334 7.1895 23.8265 6.66176 23.4878C6.12606 23.1452 5.62616 22.7536 5.14615 22.3356C4.05883 21.3871 3.19561 20.2639 2.48488 19.0151C1.71713 17.6697 1.2769 16.2184 1.0528 14.6931C1.00507 14.1256 1.00507 14.1256 0.983862 13.6979C0.962653 13.2702 0.983862 13.6979 0.960266 13.2657C0.960272 12.6307 0.960266 13.2657 0.960272 12.6307Z" fill="white"/>
<path d="M38.6566 1.08553C36.8308 4.24201 35.0354 7.34689 33.2466 10.4412C33.301 10.5536 33.3858 10.5179 33.4521 10.5192C33.7598 10.5232 34.0674 10.51 34.375 10.5259C34.5713 10.5364 34.6773 10.461 34.7728 10.2943C35.6453 8.77167 36.5258 7.25429 37.4049 5.73558C38.2522 4.27111 39.1022 2.80929 39.9415 1.34218C40.0476 1.15565 40.1617 1.08156 40.3844 1.08289C42.4304 1.09215 44.4778 1.08818 46.5238 1.08818C46.6086 1.08818 46.6922 1.08818 46.834 1.08818C46.6656 1.43611 46.4734 1.73112 46.301 2.03671C46.1233 2.34892 45.9417 2.6598 45.7626 2.97069C45.577 3.29083 45.3927 3.61098 45.2071 3.93112C45.0267 4.24201 44.8464 4.5529 44.666 4.86378C44.487 5.17334 44.3094 5.48423 44.129 5.79379C43.9487 6.10467 43.7684 6.41556 43.588 6.72645C43.409 7.03601 43.23 7.34689 43.051 7.65646C42.8653 7.9766 42.6784 8.29542 42.4941 8.61689C42.3151 8.92645 42.1347 9.23602 41.9584 9.54822C41.7833 9.85779 41.5858 10.1554 41.4187 10.5232C41.8748 10.5232 42.2938 10.5219 42.7129 10.5232C42.8667 10.5232 42.8958 10.3989 42.9515 10.3023C43.3599 9.60114 43.767 8.89735 44.1741 8.19488C44.8437 7.03601 45.512 5.87449 46.1817 4.71561C46.8195 3.61098 47.4679 2.51164 48.0911 1.39906C48.2316 1.14903 48.3894 1.07627 48.6639 1.08156C49.6491 1.09876 50.6357 1.08686 51.6222 1.0895C51.8649 1.0895 51.8662 1.09347 51.8715 1.3316C51.8728 1.3951 51.8715 1.4586 51.8715 1.5221C51.8715 9.18575 51.8715 16.8507 51.8715 24.5144C51.8715 24.7966 51.7323 24.9381 51.4538 24.939C43.84 24.939 36.2274 24.939 28.6136 24.939C28.1667 24.939 28.2211 25.0052 28.2211 24.5607C28.2211 16.8653 28.2211 9.16855 28.2211 1.47315C28.2211 1.02732 28.168 1.09215 28.6122 1.09215C31.8251 1.09082 35.038 1.09215 38.2509 1.09215C38.3636 1.09215 38.4776 1.09215 38.6566 1.09215V1.08553Z" fill="white"/>
<path d="M53.8499 1.10257H71.1594C71.1913 1.22692 71.0931 1.31027 71.0401 1.40287C69.4648 4.1294 67.8882 6.85593 66.3103 9.58113C66.1671 9.82852 66.0239 10.0746 65.882 10.322C65.8515 10.3749 65.8011 10.4238 65.8422 10.5204C66.2426 10.5204 66.6524 10.5151 67.0621 10.5231C67.2318 10.527 67.269 10.4 67.33 10.2955C67.8285 9.43694 68.3258 8.57572 68.823 7.71582C70.0562 5.58461 71.2907 3.45339 72.5186 1.31953C72.6114 1.15681 72.7082 1.08008 72.9097 1.08008C75.7407 1.08802 78.5704 1.08537 81.4014 1.08537C81.4624 1.08537 81.5234 1.09066 81.6441 1.09728C77.0415 8.9845 72.451 16.8334 67.8657 24.6862C67.8232 24.7589 67.7781 24.8291 67.684 24.8555C63.0775 16.9485 58.4723 9.04138 53.8473 1.10257H53.8499Z" fill="white"/>
</svg>
