<!-- Generated by IcoMoon.io -->
<svg version="1.1" xmlns="http://www.w3.org/2000/svg" width="105" height="32" viewBox="0 0 105 32">
<path d="M37.052 30.987c-0.091-0.13-0.046-0.276-0.046-0.414-0.002-9.533-0.002-19.064-0.002-28.596 0-0.085 0.005-0.171 0-0.256-0.007-0.126 0.048-0.181 0.172-0.176 0.071 0.004 0.142 0 0.213 0 1.932 0 3.867 0.005 5.799-0.007 0.267-0.002 0.384 0.082 0.485 0.322 0.135 0.32 0.24 0.652 0.357 0.978 0.322 0.884 0.644 1.769 0.976 2.649 0.372 0.985 0.695 1.986 1.072 2.967 0.388 1.008 0.718 2.036 1.129 3.035 0.295 0.722 0.521 1.47 0.791 2.203 0.382 1.040 0.782 2.075 1.163 3.116 0.249 0.679 0.453 1.374 0.722 2.045 0.281 0.708 0.516 1.429 0.804 2.135 0.302 0.745 0.546 1.515 0.807 2.276 0.025 0.073 0.055 0.155 0.116 0.16 0.087 0.009 0.123-0.075 0.151-0.156 0.34-0.953 0.679-1.904 1.024-2.853 0.261-0.718 0.546-1.429 0.797-2.153 0.245-0.711 0.512-1.413 0.757-2.126 0.185-0.54 0.402-1.074 0.601-1.613 0.29-0.782 0.558-1.57 0.843-2.354 0.158-0.436 0.352-0.859 0.493-1.301 0.137-0.432 0.293-0.859 0.452-1.28 0.235-0.624 0.457-1.252 0.697-1.874 0.172-0.45 0.354-0.901 0.489-1.369 0.137-0.471 0.341-0.923 0.521-1.381 0.153-0.386 0.258-0.788 0.42-1.173 0.192-0.455 0.343-0.93 0.496-1.401 0.068-0.208 0.201-0.388 0.201-0.629 0-0.213 0.192-0.22 0.372-0.22 1.735 0.004 3.469 0.002 5.204 0.002 0.256 0 0.512 0 0.768 0 0.428 0.004 0.372-0.043 0.377 0.396 0 0.028 0 0.057 0 0.085 0 9.49 0 18.978-0.002 28.468 0 0.165 0.050 0.341-0.052 0.498-1.417-0.050-2.836-0.037-4.254-0.007-0.096-0.158-0.046-0.332-0.046-0.5-0.004-7.458-0.002-14.916-0.002-22.374v-0.555c-0.279 0.455-0.393 0.875-0.542 1.28-0.4 1.088-0.809 2.173-1.207 3.261-0.425 1.157-0.825 2.324-1.264 3.476-0.411 1.076-0.795 2.158-1.198 3.236-0.402 1.076-0.793 2.155-1.193 3.23-0.377 1.013-0.748 2.029-1.124 3.042-0.308 0.83-0.612 1.662-0.919 2.491-0.377 1.013-0.768 2.021-1.12 3.044-0.044 0.13-0.123 0.249-0.185 0.372-1.015-0.044-2.030-0.027-3.046-0.009-0.32-0.494-0.418-1.077-0.649-1.609-0.181-0.418-0.306-0.859-0.464-1.285-0.26-0.695-0.516-1.394-0.766-2.093-0.185-0.517-0.382-1.033-0.574-1.55-0.293-0.788-0.603-1.57-0.893-2.359-0.238-0.647-0.452-1.303-0.684-1.95-0.181-0.505-0.379-1.004-0.569-1.506-0.299-0.786-0.605-1.57-0.891-2.359-0.251-0.688-0.469-1.387-0.722-2.073-0.37-1.004-0.757-2.002-1.132-3.005-0.249-0.665-0.468-1.342-0.74-1.996-0.206-0.498-0.316-1.033-0.599-1.564 0 0.208 0 0.361 0 0.514 0.011 7.453 0.021 14.905 0.028 22.358 0 0.165 0.053 0.341-0.055 0.496-1.449-0.050-2.898-0.037-4.347-0.007l-0.009 0.004z"></path>
<path d="M13.357 0.723c0.272-0.018 0.542-0.036 0.813-0.052 0.548-0.004 1.097-0.009 1.646-0.014 0.324 0.023 0.647 0.046 0.971 0.071 0.043 0.057 0.094 0.041 0.146 0.018 0.846 0.156 1.709 0.238 2.537 0.482 1.429 0.42 2.782 1.010 4.020 1.856 1.623 1.108 2.928 2.507 3.936 4.185 0.453 0.756 0.843 1.543 1.14 2.381 0.228 0.642 0.443 1.284 0.612 1.945 0.462 1.819 0.596 3.666 0.498 5.534-0.011 0.197-0.025 0.396-0.037 0.594-0.009 0.004-0.028 0.007-0.028 0.011 0 0.020 0.007 0.037 0.011 0.055-0.107 1.1-0.329 2.176-0.621 3.243-0.436 1.588-1.104 3.060-2.034 4.414-1.074 1.563-2.42 2.845-4.043 3.829-1.271 0.772-2.64 1.307-4.082 1.652-0.389 0.092-0.791 0.137-1.186 0.204-0.107 0-0.213-0.004-0.308 0.062-0.124 0.009-0.249 0.016-0.372 0.025-0.16 0.014-0.325-0.011-0.478 0.064-0.308 0.018-0.613 0.036-0.919 0.055-0.363-0.028-0.725-0.030-1.088 0-0.306-0.018-0.613-0.037-0.919-0.055-0.151-0.075-0.318-0.048-0.478-0.064-0.123-0.009-0.245-0.018-0.368-0.027-0.092-0.064-0.201-0.060-0.308-0.060-0.526 0.020-1.019-0.16-1.516-0.283-1.563-0.388-3.021-1.031-4.35-1.936-1.248-0.85-2.318-1.893-3.214-3.111-0.729-0.99-1.284-2.073-1.776-3.2-0.393-0.901-0.642-1.845-0.869-2.791-0.144-0.603-0.235-1.234-0.231-1.865 0.032-0.053 0.023-0.096-0.032-0.13-0.112-1.36-0.092-2.717 0.046-4.075 0.089-0.868 0.215-1.73 0.459-2.562 0.183-0.624 0.382-1.246 0.645-1.853 0.329-0.756 0.679-1.495 1.125-2.187 0.382-0.594 0.741-1.204 1.232-1.73 0.279-0.299 0.542-0.62 0.832-0.908 0.439-0.436 0.898-0.859 1.431-1.189 0.654-0.405 1.264-0.892 1.973-1.195 0.638-0.27 1.273-0.548 1.941-0.757 0.791-0.249 1.604-0.364 2.402-0.565 0.174-0.044 0.366-0.023 0.548-0.032 0.101 0.004 0.206 0.023 0.299-0.039h-0.004zM5.389 13.959c0 0-0.025 0.007-0.025 0.009 0 0.018 0.007 0.034 0.011 0.052-0.018 0.24-0.034 0.482-0.052 0.722-0.059 0.032-0.060 0.076-0.028 0.13-0.034 0.878-0.043 1.757 0.048 2.633 0.069 0.667 0.165 1.328 0.316 1.984 0.213 0.928 0.564 1.797 0.996 2.642 0.42 0.82 0.944 1.572 1.598 2.213 0.743 0.731 1.604 1.31 2.562 1.742 0.574 0.26 1.186 0.4 1.78 0.594 0.35 0.114 0.747 0.094 1.122 0.133 0.048 0.057 0.1 0.043 0.153 0.009 0.775 0.077 1.548 0.078 2.324-0.002 0.053 0.037 0.107 0.048 0.155-0.009 0.293-0.014 0.587-0.071 0.866-0.133 0.825-0.185 1.639-0.412 2.397-0.816 0.852-0.455 1.645-0.988 2.317-1.684 0.386-0.4 0.688-0.868 1.010-1.321 0.336-0.475 0.594-0.987 0.805-1.506 0.434-1.063 0.72-2.18 0.892-3.317 0.158-1.042 0.183-2.089 0.1-3.14l-0.052-0.78c0 0 0.018-0.021 0.016-0.023-0.011-0.014-0.025-0.025-0.037-0.039-0.021-0.18-0.041-0.359-0.062-0.54 0.005-0.009 0.018-0.021 0.016-0.023-0.011-0.014-0.025-0.025-0.037-0.036-0.18-0.236-0.137-0.533-0.187-0.798-0.124-0.638-0.329-1.25-0.553-1.852-0.366-0.994-0.916-1.89-1.605-2.701-0.766-0.901-1.692-1.579-2.752-2.085-0.926-0.443-1.922-0.649-2.928-0.816-0.4-0.059 0 0-0.4-0.059-0.185-0.005-0.368-0.011-0.553-0.014-0.619-0.007-1.237-0.039-1.852 0.059-0.24 0.012 0 0-0.24 0.012-0.391 0.012-0.768 0.114-1.147 0.201-1.040 0.235-2.025 0.631-2.9 1.225-1.065 0.722-1.925 1.653-2.585 2.777-0.724 1.234-1.147 2.562-1.39 3.959l-0.021 0.004 0.016 0.014c-0.030 0.196-0.060 0.391-0.091 0.587v-0.005z"></path>
<path d="M86.6 31.007c-0.249-0.51-0.475-1.035-0.706-1.552-0.219-0.491-0.457-0.978-0.681-1.467-0.29-0.633-0.532-1.289-0.892-1.892-0.132-0.22-0.188-0.494-0.304-0.734-0.32-0.677-0.612-1.369-0.951-2.037-0.302-0.594-0.519-1.227-0.859-1.804-0.148-0.251-0.19-0.564-0.348-0.805-0.308-0.471-0.476-1.008-0.715-1.504-0.281-0.587-0.542-1.193-0.816-1.787-0.244-0.528-0.427-1.088-0.757-1.577-0.105-0.156-0.112-0.377-0.212-0.54-0.323-0.537-0.482-1.152-0.812-1.687-0.16-0.258-0.226-0.571-0.356-0.848-0.948-2.039-1.904-4.075-2.852-6.114-0.645-1.388-1.278-2.782-1.925-4.169-0.14-0.299-0.292-0.592-0.379-0.91 0.107-0.055 0.206-0.034 0.304-0.034 1.579 0 3.156 0.007 4.734-0.009 0.299-0.004 0.446 0.084 0.567 0.364 0.596 1.394 1.262 2.754 1.89 4.133 0.635 1.392 1.294 2.772 1.932 4.162 0.773 1.682 1.559 3.358 2.329 5.040 0.695 1.518 1.415 3.028 2.107 4.548 0.574 1.264 1.179 2.514 1.769 3.771 0.025 0.051 0.044 0.105 0.075 0.153 0.071 0.112 0.144 0.133 0.215-0.002 0.020-0.037 0.043-0.075 0.059-0.114 0.256-0.693 0.645-1.326 0.891-2.027 0.075-0.213 0.238-0.409 0.331-0.626 0.37-0.855 0.798-1.684 1.177-2.533 0.34-0.761 0.713-1.504 1.051-2.265 0.373-0.839 0.78-1.66 1.163-2.494 0.357-0.782 0.741-1.554 1.077-2.343 0.222-0.523 0.564-0.996 0.688-1.565 0.030-0.14 0.16-0.256 0.219-0.393 0.281-0.667 0.663-1.289 0.882-1.984 0.041-0.128 0.142-0.235 0.199-0.359 0.302-0.672 0.667-1.316 0.908-2.018 0.089-0.26 0.279-0.482 0.391-0.736 0.366-0.827 0.747-1.646 1.145-2.459 0.071-0.146 0.13-0.256 0.334-0.254 1.691 0.011 3.381 0.005 5.065 0.005 0.078 0.14-0.018 0.231-0.064 0.325-0.205 0.428-0.448 0.841-0.647 1.268-0.187 0.402-0.345 0.818-0.546 1.218-0.316 0.631-0.615 1.269-0.914 1.906-0.237 0.5-0.514 0.983-0.713 1.495-0.187 0.484-0.462 0.921-0.66 1.392-0.178 0.425-0.347 0.852-0.572 1.25-0.32 0.565-0.587 1.164-0.839 1.755-0.526 1.228-1.129 2.418-1.682 3.632-0.686 1.511-1.412 3.003-2.121 4.503-0.715 1.513-1.426 3.028-2.14 4.539-0.548 1.156-1.104 2.306-1.65 3.461-0.366 0.775-0.722 1.557-1.085 2.334-0.059 0.126-0.098 0.269-0.211 0.365-0.055-0.007-0.11-0.021-0.165-0.021-1.227 0-2.453 0-3.68 0-0.084 0-0.171-0.016-0.244 0.041l-0.004 0.003z"></path>
<path d="M37.052 30.987c1.449-0.028 2.898-0.043 4.347 0.007-0.062 0.046-0.135 0.032-0.204 0.032-1.3 0-2.599 0-3.901 0-0.082 0-0.171 0.023-0.244-0.039h0.002z"></path>
<path d="M61.958 30.987c1.419-0.030 2.836-0.043 4.254 0.007-0.076 0.051-0.164 0.032-0.247 0.032-1.255 0-2.51 0-3.764 0-0.082 0-0.171 0.023-0.244-0.039z"></path>
<path d="M86.6 31.007c0.075-0.057 0.162-0.041 0.244-0.041 1.227 0 2.453 0 3.68 0 0.055 0 0.11 0.013 0.165 0.021-0.025 0.012-0.050 0.034-0.075 0.034-1.339 0-2.677 0.028-4.014-0.014z"></path>
<path d="M50.11 30.98c1.015-0.018 2.030-0.035 3.045 0.009-0.251 0.076-0.507 0.032-0.759 0.036-0.654 0.007-1.307 0.005-1.961 0-0.108 0-0.228 0.043-0.325-0.045z"></path>
<path d="M15.816 0.658c-0.549 0.005-1.099 0.009-1.646 0.014 0.549-0.085 1.099-0.060 1.646-0.014z"></path>
<path d="M14.486 31.336c0.363-0.032 0.725-0.030 1.088 0-0.363 0.066-0.725 0.064-1.088 0z"></path>
<path d="M13.089 31.217c0.16 0.016 0.328-0.012 0.479 0.064-0.166 0.014-0.331 0.045-0.479-0.064z"></path>
<path d="M16.493 31.281c0.153-0.075 0.319-0.050 0.479-0.064-0.15 0.103-0.315 0.080-0.479 0.064z"></path>
<path d="M13.358 0.724c-0.095 0.061-0.2 0.043-0.299 0.039 0.093-0.071 0.196-0.062 0.299-0.039z"></path>
<path d="M12.413 31.13c0.107 0 0.214-0.004 0.308 0.061-0.114 0.036-0.216 0.011-0.308-0.061z"></path>
<path d="M17.343 31.192c0.095-0.066 0.201-0.061 0.308-0.062-0.091 0.078-0.196 0.093-0.308 0.062z"></path>
<path d="M16.931 0.746c-0.053 0.023-0.104 0.039-0.144-0.018 0.053-0.025 0.104-0.039 0.144 0.018z"></path>
<path d="M0.423 17.814c0.055 0.032 0.063 0.076 0.032 0.129-0.051-0.033-0.046-0.079-0.032-0.129z"></path>
<path d="M29.617 17.789c-0.004-0.018-0.011-0.037-0.011-0.055 0-0.004 0.018-0.007 0.028-0.011 0.020 0.028 0.020 0.051-0.016 0.066h-0.002z"></path>
<path d="M13.715 26.811c0.053-0.025 0.106-0.037 0.153 0.011-0.055 0.032-0.106 0.047-0.153-0.011z"></path>
<path d="M16.191 26.818c0.049-0.042 0.102-0.033 0.155-0.009-0.049 0.056-0.102 0.044-0.155 0.009z"></path>
<path d="M5.323 14.742c0.016 0.049 0.023 0.095-0.028 0.129-0.032-0.053-0.030-0.097 0.028-0.129z"></path>
<path d="M24.6 13.511c-0.012-0.012-0.026-0.023-0.035-0.035-0.002-0.004 0.007-0.016 0.012-0.023 0.012 0.012 0.026 0.023 0.037 0.037 0 0.002-0.011 0.016-0.016 0.023l0.002-0.002z"></path>
<path d="M24.682 14.112c-0.012-0.012-0.025-0.023-0.034-0.037-0.002-0.004 0.009-0.016 0.012-0.023 0.012 0.012 0.027 0.025 0.037 0.039 0 0.002-0.011 0.014-0.016 0.023v-0.002z"></path>
<path d="M5.389 13.959c0.004 0.018 0.009 0.035 0.011 0.053 0 0.002-0.016 0.005-0.025 0.007-0.004-0.018-0.009-0.035-0.011-0.053 0-0.002 0.016-0.005 0.025-0.009v0.002z"></path>
<path d="M5.485 13.357l0.012 0.014-0.018 0.004-0.016-0.014 0.021-0.004z"></path>
</svg>
