<!-- Generated by IcoMoon.io -->
<svg version="1.1" xmlns="http://www.w3.org/2000/svg" width="101" height="32" viewBox="0 0 101 32">
<path d="M1.182 15.545c0-0.579 0.009-0.637 0.029-0.956 0.034-0.545 0.104-1.093 0.207-1.618 0.108-0.55 0.271-1.102 0.452-1.643 1.35-4.002 3.886-7.006 7.625-8.989 1.351-0.718 2.789-1.206 4.3-1.475 1.653-0.295 3.306-0.34 4.965-0.067 0.418 0.068 0.831 0.158 1.247 0.234 0.271 0.050 0.292 0.080 0.152 0.322-0.734 1.273-1.472 2.545-2.208 3.816-1.395 2.41-2.791 4.818-4.184 7.228-0.090 0.156-0.204 0.301-0.248 0.477 0.059 0.114 0.161 0.072 0.245 0.073 0.366 0.005 0.733-0.020 1.095 0.010 0.282 0.023 0.416-0.103 0.545-0.327 1.123-1.965 2.254-3.926 3.383-5.888 0.933-1.623 1.869-3.247 2.804-4.87 0.033-0.057 0.067-0.112 0.095-0.171 0.073-0.153 0.181-0.15 0.323-0.094 2.056 0.801 3.884 1.944 5.454 3.509 1.536 1.532 2.711 3.291 3.502 5.303 0.519 1.32 0.852 2.687 0.984 4.105 0.118 1.262 0.093 2.517-0.1 3.769-0.175 1.137-0.496 2.231-0.916 3.308-1.348 3.465-3.695 6.044-6.905 7.872-1.676 0.954-3.488 1.513-5.395 1.775-1.351 0.186-2.699 0.171-4.052 0.011-0.749-0.088-1.47-0.272-2.197-0.451-0.749-0.186-1.456-0.472-2.158-0.788-0.707-0.319-1.377-0.697-2.027-1.114-0.659-0.422-1.275-0.904-1.865-1.418-1.338-1.167-2.401-2.55-3.275-4.087-0.945-1.656-1.487-3.442-1.763-5.319-0.059-0.698-0.059-0.698-0.085-1.225s0 0-0.029-0.532c0-0.782 0 0 0-0.782z"></path>
<path d="M47.577 1.336c-2.247 3.885-4.457 7.706-6.658 11.515 0.067 0.138 0.171 0.094 0.253 0.096 0.379 0.005 0.757-0.011 1.136 0.008 0.242 0.013 0.372-0.080 0.49-0.285 1.074-1.874 2.158-3.742 3.239-5.611 1.043-1.802 2.089-3.602 3.122-5.407 0.131-0.23 0.271-0.321 0.545-0.319 2.518 0.011 5.038 0.006 7.556 0.006 0.104 0 0.207 0 0.382 0-0.207 0.428-0.444 0.791-0.656 1.167-0.219 0.384-0.442 0.767-0.663 1.15-0.228 0.394-0.455 0.788-0.684 1.182-0.222 0.383-0.444 0.765-0.666 1.148-0.22 0.381-0.439 0.764-0.661 1.145-0.222 0.383-0.444 0.765-0.666 1.148-0.22 0.381-0.441 0.764-0.661 1.145-0.229 0.394-0.459 0.786-0.685 1.182-0.22 0.381-0.442 0.762-0.659 1.146-0.215 0.381-0.459 0.747-0.664 1.2 0.561 0 1.077-0.002 1.593 0 0.189 0 0.225-0.153 0.294-0.272 0.503-0.863 1.004-1.729 1.505-2.594 0.824-1.426 1.647-2.856 2.471-4.282 0.785-1.36 1.583-2.713 2.35-4.082 0.173-0.308 0.367-0.397 0.705-0.391 1.213 0.021 2.427 0.007 3.641 0.010 0.299 0 0.3 0.005 0.307 0.298 0.002 0.078 0 0.156 0 0.234 0 9.432 0 18.866 0 28.298 0 0.347-0.171 0.521-0.514 0.523-9.371 0-18.74 0-28.111 0-0.55 0-0.483 0.081-0.483-0.466 0-9.471 0-18.944 0-28.415 0-0.549-0.065-0.469 0.481-0.469 3.954-0.002 7.909 0 11.863 0 0.139 0 0.279 0 0.499 0v-0.008z"></path>
<path d="M66.277 1.357h21.304c0.039 0.153-0.082 0.256-0.147 0.37-1.939 3.356-3.879 6.711-5.821 10.066-0.176 0.304-0.353 0.607-0.527 0.912-0.038 0.065-0.1 0.125-0.049 0.244 0.493 0 0.997-0.007 1.501 0.003 0.209 0.005 0.255-0.152 0.33-0.28 0.614-1.057 1.226-2.117 1.838-3.175 1.518-2.623 3.037-5.246 4.548-7.872 0.114-0.2 0.233-0.295 0.481-0.295 3.484 0.010 6.967 0.006 10.451 0.006 0.075 0 0.15 0.006 0.299 0.015-5.665 9.707-11.315 19.368-16.958 29.033-0.052 0.089-0.108 0.176-0.224 0.208-5.67-9.732-11.337-19.464-17.030-29.234h0.003z"></path>
</svg>
